<svg xmlns="http://www.w3.org/2000/svg" width="800" height="800" viewBox="0 0 512 512"><title>ionicons-v5-q</title><path d="M262 192a64 64 0 1 0 58 58 64 64 0 0 0-58-58m154 64-1 21 45 35a11 11 0 0 1 3 14l-43 74a11 11 0 0 1-13 5l-45-18a16 16 0 0 0-15 1l-22 13a16 16 0 0 0-9 12l-7 48a11 11 0 0 1-10 9h-86a11 11 0 0 1-10-9l-7-48a16 16 0 0 0-9-12l-22-12a16 16 0 0 0-15-2l-45 18a11 11 0 0 1-13-5l-43-74a11 11 0 0 1 3-13l38-30a16 16 0 0 0 6-15v-24a16 16 0 0 0-6-14l-38-30a11 11 0 0 1-3-14l43-74a11 11 0 0 1 13-5l45 18a16 16 0 0 0 15-1l22-13a16 16 0 0 0 9-12l7-48a11 11 0 0 1 10-9h86a11 11 0 0 1 10 9l7 48a16 16 0 0 0 9 12l22 12a16 16 0 0 0 15 2l45-18a11 11 0 0 1 13 5l43 74a11 11 0 0 1-3 13l-38 30a16 16 0 0 0-6 15z" style="fill:none;stroke:#000;stroke-linecap:round;stroke-linejoin:round;stroke-width:32px"/></svg>