<?xml version="1.0" standalone="no"?>
<!DOCTYPE svg PUBLIC "-//W3C//DTD SVG 20010904//EN"
 "http://www.w3.org/TR/2001/REC-SVG-20010904/DTD/svg10.dtd">
<svg version="1.0" xmlns="http://www.w3.org/2000/svg"
 width="225.000000pt" height="225.000000pt" viewBox="0 0 225.000000 225.000000"
 preserveAspectRatio="xMidYMid meet">
<g transform="translate(0.000000,225.000000) scale(0.100000,-0.100000)"
fill="#000000" stroke="none">
<path d="M980 2243 c-63 -24 -90 -73 -110 -198 l-11 -70 -72 -30 c-40 -16 -75
-31 -78 -33 -3 -1 -37 20 -75 48 -131 96 -173 91 -302 -34 -97 -93 -112 -118
-112 -180 0 -37 8 -56 45 -108 72 -101 72 -99 43 -165 -14 -32 -28 -65 -31
-74 -4 -12 -27 -20 -79 -29 -178 -28 -198 -53 -198 -251 0 -189 20 -216 178
-244 l97 -17 30 -72 c17 -39 31 -74 33 -77 1 -3 -20 -37 -48 -75 -93 -127 -90
-171 19 -287 96 -102 134 -127 191 -127 40 0 58 7 111 45 102 73 98 72 176 39
37 -15 70 -29 71 -30 2 -1 12 -46 23 -100 29 -152 60 -174 244 -174 184 0 215
22 244 174 11 54 21 98 23 100 1 1 36 16 76 33 l74 32 66 -48 c86 -62 104 -71
142 -71 52 0 93 26 178 114 84 85 102 115 102 167 0 37 -9 55 -71 141 l-48 66
34 78 34 79 97 17 c151 26 174 58 174 242 0 129 -15 184 -57 211 -13 9 -67 25
-119 35 -53 10 -97 20 -98 22 -7 11 -56 140 -56 148 0 5 25 46 55 90 85 125
77 166 -59 298 -85 84 -115 102 -167 102 -37 0 -55 -9 -141 -71 l-67 -48 -63
28 c-35 16 -70 31 -79 34 -12 4 -20 27 -29 79 -20 129 -39 163 -103 187 -29
11 -260 14 -287 4z m233 -122 c21 -8 25 -19 36 -98 20 -132 27 -145 97 -167
32 -10 85 -31 118 -47 32 -16 70 -29 85 -29 18 0 57 21 109 60 45 33 88 60 94
60 17 0 148 -131 148 -148 0 -8 -27 -51 -60 -97 -34 -47 -60 -94 -60 -107 0
-14 13 -51 29 -84 16 -32 37 -82 46 -111 10 -29 24 -58 32 -65 9 -7 66 -22
127 -33 l111 -20 0 -110 0 -110 -111 -20 c-61 -11 -119 -26 -127 -33 -9 -8
-24 -37 -33 -65 -9 -29 -30 -78 -45 -109 -16 -32 -29 -70 -29 -84 0 -17 22
-58 60 -110 33 -45 60 -88 60 -95 0 -17 -130 -149 -147 -149 -7 0 -51 27 -97
60 -51 36 -95 60 -111 60 -14 0 -51 -13 -83 -29 -31 -15 -80 -36 -108 -45 -29
-9 -58 -25 -67 -34 -8 -9 -23 -65 -32 -125 -21 -125 -13 -119 -150 -115 l-90
3 -20 111 c-11 61 -26 119 -33 127 -8 9 -37 24 -65 33 -29 9 -78 30 -109 45
-32 16 -67 29 -79 29 -12 0 -58 -26 -103 -58 -44 -32 -87 -62 -95 -66 -9 -6
-35 14 -87 65 -41 40 -74 77 -74 82 0 4 29 49 65 98 36 50 65 97 65 105 0 8
-15 45 -34 82 -18 37 -41 90 -50 119 -9 28 -23 57 -31 63 -7 6 -61 19 -119 29
-59 10 -109 21 -112 24 -7 7 -6 209 1 216 3 2 53 12 112 22 59 10 112 24 119
31 6 7 20 38 29 68 10 30 31 81 46 112 16 32 29 68 29 80 0 13 -30 65 -66 116
l-67 94 74 74 c40 41 77 74 82 74 5 0 46 -26 91 -59 46 -32 92 -62 104 -65 14
-5 44 5 89 27 37 19 92 42 121 52 29 9 59 26 66 38 8 12 19 60 26 107 20 136
15 130 114 130 47 0 95 -4 109 -9z"/>
<path d="M999 1592 c-244 -64 -400 -316 -348 -564 39 -185 192 -338 377 -377
248 -52 500 104 564 348 94 362 -231 687 -593 593z m256 -133 c73 -27 156
-104 192 -177 25 -51 28 -68 28 -157 0 -82 -4 -109 -22 -147 -30 -66 -105
-143 -172 -175 -50 -25 -67 -28 -156 -28 -86 0 -107 3 -150 25 -70 34 -136 99
-171 167 -26 53 -29 67 -29 158 0 117 17 165 85 239 77 83 149 114 267 115 50
1 89 -5 128 -20z"/>
</g>
</svg>
